<mxfile host="Electron" modified="2024-07-09T12:25:24.221Z" agent="Mozilla/5.0 (Windows NT 10.0; Win64; x64) AppleWebKit/537.36 (KHTML, like Gecko) draw.io/24.6.4 Chrome/124.0.6367.207 Electron/30.0.6 Safari/537.36" etag="w6kAAtPihWmXEk49bnGg" version="24.6.4" type="device">
  <diagram name="Page-1" id="h0B6kSKXMwPi0xcUYeZy">
    <mxGraphModel dx="1480" dy="866" grid="1" gridSize="10" guides="1" tooltips="1" connect="1" arrows="1" fold="1" page="1" pageScale="1" pageWidth="850" pageHeight="1100" math="0" shadow="0">
      <root>
        <mxCell id="0" />
        <mxCell id="1" parent="0" />
        <mxCell id="oQvdDZIeDCHdPGVn-STA-63" value="" style="rounded=0;whiteSpace=wrap;html=1;rotation=90;" vertex="1" parent="1">
          <mxGeometry x="-35" y="85" width="925" height="805" as="geometry" />
        </mxCell>
        <mxCell id="oQvdDZIeDCHdPGVn-STA-61" value="&lt;b style=&quot;font-size: 22px;&quot;&gt;&lt;span style=&quot;font-size: 22px; line-height: 115%;&quot;&gt;Building an ER model for a hospital&amp;nbsp;&lt;/span&gt;&lt;/b&gt;" style="text;html=1;align=center;verticalAlign=middle;whiteSpace=wrap;rounded=0;strokeWidth=4;fontSize=22;" vertex="1" parent="1">
          <mxGeometry x="70" y="70" width="480" height="30" as="geometry" />
        </mxCell>
        <mxCell id="oQvdDZIeDCHdPGVn-STA-20" value="" style="group" vertex="1" connectable="0" parent="1">
          <mxGeometry x="440" y="160" width="350" height="143.04878048780486" as="geometry" />
        </mxCell>
        <mxCell id="oQvdDZIeDCHdPGVn-STA-15" style="edgeStyle=orthogonalEdgeStyle;rounded=0;orthogonalLoop=1;jettySize=auto;html=1;exitX=0.5;exitY=0;exitDx=0;exitDy=0;entryX=0.5;entryY=1;entryDx=0;entryDy=0;" edge="1" parent="oQvdDZIeDCHdPGVn-STA-20" source="oQvdDZIeDCHdPGVn-STA-2" target="oQvdDZIeDCHdPGVn-STA-5">
          <mxGeometry relative="1" as="geometry" />
        </mxCell>
        <mxCell id="oQvdDZIeDCHdPGVn-STA-16" style="edgeStyle=orthogonalEdgeStyle;rounded=0;orthogonalLoop=1;jettySize=auto;html=1;exitX=0.5;exitY=0;exitDx=0;exitDy=0;entryX=0.5;entryY=1;entryDx=0;entryDy=0;" edge="1" parent="oQvdDZIeDCHdPGVn-STA-20" source="oQvdDZIeDCHdPGVn-STA-2" target="oQvdDZIeDCHdPGVn-STA-6">
          <mxGeometry relative="1" as="geometry" />
        </mxCell>
        <mxCell id="oQvdDZIeDCHdPGVn-STA-17" style="edgeStyle=orthogonalEdgeStyle;rounded=0;orthogonalLoop=1;jettySize=auto;html=1;entryX=0.5;entryY=1;entryDx=0;entryDy=0;" edge="1" parent="oQvdDZIeDCHdPGVn-STA-20" source="oQvdDZIeDCHdPGVn-STA-2" target="oQvdDZIeDCHdPGVn-STA-7">
          <mxGeometry relative="1" as="geometry" />
        </mxCell>
        <mxCell id="oQvdDZIeDCHdPGVn-STA-18" style="edgeStyle=orthogonalEdgeStyle;rounded=0;orthogonalLoop=1;jettySize=auto;html=1;exitX=0.5;exitY=0;exitDx=0;exitDy=0;entryX=0.5;entryY=1;entryDx=0;entryDy=0;" edge="1" parent="oQvdDZIeDCHdPGVn-STA-20" source="oQvdDZIeDCHdPGVn-STA-2" target="oQvdDZIeDCHdPGVn-STA-8">
          <mxGeometry relative="1" as="geometry" />
        </mxCell>
        <mxCell id="oQvdDZIeDCHdPGVn-STA-2" value="Doctor information" style="rounded=0;whiteSpace=wrap;html=1;" vertex="1" parent="oQvdDZIeDCHdPGVn-STA-20">
          <mxGeometry x="104.05405405405405" y="92.56097560975608" width="113.51351351351352" height="50.48780487804877" as="geometry" />
        </mxCell>
        <mxCell id="oQvdDZIeDCHdPGVn-STA-5" value="Doctor code" style="ellipse;whiteSpace=wrap;html=1;" vertex="1" parent="oQvdDZIeDCHdPGVn-STA-20">
          <mxGeometry width="75.67567567567568" height="50.48780487804877" as="geometry" />
        </mxCell>
        <mxCell id="oQvdDZIeDCHdPGVn-STA-6" value="Doctor name" style="ellipse;whiteSpace=wrap;html=1;" vertex="1" parent="oQvdDZIeDCHdPGVn-STA-20">
          <mxGeometry x="94.5945945945946" width="75.67567567567568" height="50.48780487804877" as="geometry" />
        </mxCell>
        <mxCell id="oQvdDZIeDCHdPGVn-STA-7" value="Date of employment" style="ellipse;whiteSpace=wrap;html=1;" vertex="1" parent="oQvdDZIeDCHdPGVn-STA-20">
          <mxGeometry x="179.72972972972974" width="75.67567567567568" height="50.48780487804877" as="geometry" />
        </mxCell>
        <mxCell id="oQvdDZIeDCHdPGVn-STA-8" value="Specialty" style="ellipse;whiteSpace=wrap;html=1;" vertex="1" parent="oQvdDZIeDCHdPGVn-STA-20">
          <mxGeometry x="274.3243243243243" width="75.67567567567568" height="50.48780487804877" as="geometry" />
        </mxCell>
        <mxCell id="oQvdDZIeDCHdPGVn-STA-21" value="" style="group" vertex="1" connectable="0" parent="1">
          <mxGeometry x="90" y="160" width="279.05405405405406" height="109.39024390243902" as="geometry" />
        </mxCell>
        <mxCell id="oQvdDZIeDCHdPGVn-STA-13" style="edgeStyle=orthogonalEdgeStyle;rounded=0;orthogonalLoop=1;jettySize=auto;html=1;exitX=1;exitY=0.5;exitDx=0;exitDy=0;entryX=0;entryY=0.5;entryDx=0;entryDy=0;" edge="1" parent="oQvdDZIeDCHdPGVn-STA-21" source="oQvdDZIeDCHdPGVn-STA-3" target="oQvdDZIeDCHdPGVn-STA-11">
          <mxGeometry relative="1" as="geometry" />
        </mxCell>
        <mxCell id="oQvdDZIeDCHdPGVn-STA-14" style="edgeStyle=orthogonalEdgeStyle;rounded=0;orthogonalLoop=1;jettySize=auto;html=1;exitX=1;exitY=0.5;exitDx=0;exitDy=0;entryX=0;entryY=0.5;entryDx=0;entryDy=0;" edge="1" parent="oQvdDZIeDCHdPGVn-STA-21" source="oQvdDZIeDCHdPGVn-STA-3" target="oQvdDZIeDCHdPGVn-STA-10">
          <mxGeometry relative="1" as="geometry" />
        </mxCell>
        <mxCell id="oQvdDZIeDCHdPGVn-STA-3" value="Patien&lt;span style=&quot;background-color: initial;&quot;&gt;t information&lt;/span&gt;" style="rounded=0;whiteSpace=wrap;html=1;" vertex="1" parent="oQvdDZIeDCHdPGVn-STA-21">
          <mxGeometry y="42.073170731707314" width="122.97297297297297" height="50.48780487804878" as="geometry" />
        </mxCell>
        <mxCell id="oQvdDZIeDCHdPGVn-STA-10" value="&lt;span style=&quot;font-size:12.0pt;line-height:115%;&lt;br/&gt;font-family:&amp;quot;Aptos&amp;quot;,sans-serif;mso-ascii-theme-font:minor-latin;mso-fareast-font-family:&lt;br/&gt;&amp;quot;Yu Mincho&amp;quot;;mso-fareast-theme-font:minor-fareast;mso-hansi-theme-font:minor-latin;&lt;br/&gt;mso-bidi-font-family:&amp;quot;Times New Roman&amp;quot;;mso-bidi-theme-font:minor-bidi;&lt;br/&gt;mso-ansi-language:EN-US;mso-fareast-language:JA;mso-bidi-language:AR-SA&quot;&gt;identifier&lt;/span&gt;" style="ellipse;whiteSpace=wrap;html=1;" vertex="1" parent="oQvdDZIeDCHdPGVn-STA-21">
          <mxGeometry x="203.3783783783784" y="67.3170731707317" width="75.67567567567568" height="42.073170731707314" as="geometry" />
        </mxCell>
        <mxCell id="oQvdDZIeDCHdPGVn-STA-11" value="&lt;span style=&quot;font-size:12.0pt;line-height:115%;&lt;br/&gt;font-family:&amp;quot;Aptos&amp;quot;,sans-serif;mso-ascii-theme-font:minor-latin;mso-fareast-font-family:&lt;br/&gt;&amp;quot;Yu Mincho&amp;quot;;mso-fareast-theme-font:minor-fareast;mso-hansi-theme-font:minor-latin;&lt;br/&gt;mso-bidi-font-family:&amp;quot;Times New Roman&amp;quot;;mso-bidi-theme-font:minor-bidi;&lt;br/&gt;mso-ansi-language:EN-US;mso-fareast-language:JA;mso-bidi-language:AR-SA&quot;&gt;patient&lt;br/&gt;name&lt;/span&gt;" style="ellipse;whiteSpace=wrap;html=1;" vertex="1" parent="oQvdDZIeDCHdPGVn-STA-21">
          <mxGeometry x="203.3783783783784" width="75.67567567567568" height="42.073170731707314" as="geometry" />
        </mxCell>
        <mxCell id="oQvdDZIeDCHdPGVn-STA-49" style="edgeStyle=orthogonalEdgeStyle;rounded=0;orthogonalLoop=1;jettySize=auto;html=1;exitX=1;exitY=0.5;exitDx=0;exitDy=0;entryX=0;entryY=0.5;entryDx=0;entryDy=0;shape=link;" edge="1" parent="1" source="oQvdDZIeDCHdPGVn-STA-23" target="oQvdDZIeDCHdPGVn-STA-36">
          <mxGeometry relative="1" as="geometry" />
        </mxCell>
        <mxCell id="oQvdDZIeDCHdPGVn-STA-51" style="edgeStyle=orthogonalEdgeStyle;rounded=0;orthogonalLoop=1;jettySize=auto;html=1;exitX=0.5;exitY=1;exitDx=0;exitDy=0;entryX=0.5;entryY=0;entryDx=0;entryDy=0;" edge="1" parent="1" source="oQvdDZIeDCHdPGVn-STA-23" target="oQvdDZIeDCHdPGVn-STA-29">
          <mxGeometry relative="1" as="geometry">
            <Array as="points">
              <mxPoint x="156" y="522" />
            </Array>
          </mxGeometry>
        </mxCell>
        <mxCell id="oQvdDZIeDCHdPGVn-STA-56" style="edgeStyle=orthogonalEdgeStyle;rounded=0;orthogonalLoop=1;jettySize=auto;html=1;exitX=1;exitY=1;exitDx=0;exitDy=0;entryX=0;entryY=0.5;entryDx=0;entryDy=0;" edge="1" parent="1" source="oQvdDZIeDCHdPGVn-STA-23" target="oQvdDZIeDCHdPGVn-STA-54">
          <mxGeometry relative="1" as="geometry">
            <Array as="points">
              <mxPoint x="186" y="460" />
              <mxPoint x="298" y="460" />
            </Array>
          </mxGeometry>
        </mxCell>
        <mxCell id="oQvdDZIeDCHdPGVn-STA-23" value="Doctor" style="whiteSpace=wrap;html=1;aspect=fixed;" vertex="1" parent="1">
          <mxGeometry x="118.37837837837839" y="454.5121951219512" width="67.3170731707317" height="67.3170731707317" as="geometry" />
        </mxCell>
        <mxCell id="oQvdDZIeDCHdPGVn-STA-52" style="edgeStyle=orthogonalEdgeStyle;rounded=0;orthogonalLoop=1;jettySize=auto;html=1;exitX=0;exitY=0.5;exitDx=0;exitDy=0;entryX=0.5;entryY=1;entryDx=0;entryDy=0;endArrow=none;endFill=0;startArrow=classic;startFill=1;" edge="1" parent="1" source="oQvdDZIeDCHdPGVn-STA-24" target="oQvdDZIeDCHdPGVn-STA-29">
          <mxGeometry relative="1" as="geometry" />
        </mxCell>
        <mxCell id="oQvdDZIeDCHdPGVn-STA-24" value="Patient" style="whiteSpace=wrap;html=1;aspect=fixed;" vertex="1" parent="1">
          <mxGeometry x="70.00243243243241" y="365.7941463414634" width="75.73170731707317" height="75.73170731707317" as="geometry" />
        </mxCell>
        <mxCell id="oQvdDZIeDCHdPGVn-STA-53" style="edgeStyle=orthogonalEdgeStyle;rounded=0;orthogonalLoop=1;jettySize=auto;html=1;exitX=0;exitY=0.5;exitDx=0;exitDy=0;entryX=0.5;entryY=1;entryDx=0;entryDy=0;" edge="1" parent="1" source="oQvdDZIeDCHdPGVn-STA-29" target="oQvdDZIeDCHdPGVn-STA-25">
          <mxGeometry relative="1" as="geometry" />
        </mxCell>
        <mxCell id="oQvdDZIeDCHdPGVn-STA-29" value="Treatment" style="rhombus;whiteSpace=wrap;html=1;" vertex="1" parent="1">
          <mxGeometry x="118.37837837837839" y="589.1463414634146" width="75.67567567567568" height="67.3170731707317" as="geometry" />
        </mxCell>
        <mxCell id="oQvdDZIeDCHdPGVn-STA-59" style="edgeStyle=orthogonalEdgeStyle;rounded=0;orthogonalLoop=1;jettySize=auto;html=1;exitX=0.5;exitY=0;exitDx=0;exitDy=0;entryX=0.5;entryY=1;entryDx=0;entryDy=0;" edge="1" parent="1" source="oQvdDZIeDCHdPGVn-STA-30" target="oQvdDZIeDCHdPGVn-STA-36">
          <mxGeometry relative="1" as="geometry" />
        </mxCell>
        <mxCell id="oQvdDZIeDCHdPGVn-STA-30" value="Save" style="rhombus;whiteSpace=wrap;html=1;" vertex="1" parent="1">
          <mxGeometry x="392.7027027027027" y="589.1463414634146" width="75.67567567567568" height="67.3170731707317" as="geometry" />
        </mxCell>
        <mxCell id="oQvdDZIeDCHdPGVn-STA-39" style="rounded=0;orthogonalLoop=1;jettySize=auto;html=1;exitX=0.5;exitY=1;exitDx=0;exitDy=0;entryX=0.5;entryY=0;entryDx=0;entryDy=0;startArrow=none;startFill=0;endArrow=none;endFill=0;edgeStyle=orthogonalEdgeStyle;" edge="1" parent="1" source="oQvdDZIeDCHdPGVn-STA-31" target="oQvdDZIeDCHdPGVn-STA-36">
          <mxGeometry relative="1" as="geometry" />
        </mxCell>
        <mxCell id="oQvdDZIeDCHdPGVn-STA-43" style="edgeStyle=orthogonalEdgeStyle;rounded=0;orthogonalLoop=1;jettySize=auto;html=1;exitX=0.5;exitY=0;exitDx=0;exitDy=0;entryX=0.5;entryY=1;entryDx=0;entryDy=0;endArrow=none;endFill=0;" edge="1" parent="1" source="oQvdDZIeDCHdPGVn-STA-31" target="oQvdDZIeDCHdPGVn-STA-3">
          <mxGeometry relative="1" as="geometry">
            <Array as="points">
              <mxPoint x="430.5405405405405" y="319.8780487804878" />
              <mxPoint x="142.02702702702703" y="319.8780487804878" />
            </Array>
          </mxGeometry>
        </mxCell>
        <mxCell id="oQvdDZIeDCHdPGVn-STA-44" style="edgeStyle=orthogonalEdgeStyle;rounded=0;orthogonalLoop=1;jettySize=auto;html=1;exitX=1;exitY=0.5;exitDx=0;exitDy=0;entryX=0.5;entryY=1;entryDx=0;entryDy=0;endArrow=none;endFill=0;" edge="1" parent="1" source="oQvdDZIeDCHdPGVn-STA-31" target="oQvdDZIeDCHdPGVn-STA-2">
          <mxGeometry relative="1" as="geometry" />
        </mxCell>
        <mxCell id="oQvdDZIeDCHdPGVn-STA-31" value="Access" style="rhombus;whiteSpace=wrap;html=1;" vertex="1" parent="1">
          <mxGeometry x="392.7027027027027" y="336.7073170731707" width="75.67567567567568" height="67.3170731707317" as="geometry" />
        </mxCell>
        <mxCell id="oQvdDZIeDCHdPGVn-STA-35" value="" style="group" vertex="1" connectable="0" parent="1">
          <mxGeometry x="506.2162162162162" y="572.3170731707316" width="260.13513513513516" height="277.6829268292683" as="geometry" />
        </mxCell>
        <mxCell id="oQvdDZIeDCHdPGVn-STA-32" style="edgeStyle=orthogonalEdgeStyle;rounded=0;orthogonalLoop=1;jettySize=auto;html=1;exitX=1;exitY=0.5;exitDx=0;exitDy=0;entryX=0;entryY=0.5;entryDx=0;entryDy=0;" edge="1" parent="oQvdDZIeDCHdPGVn-STA-35" source="oQvdDZIeDCHdPGVn-STA-25" target="oQvdDZIeDCHdPGVn-STA-26">
          <mxGeometry relative="1" as="geometry" />
        </mxCell>
        <mxCell id="oQvdDZIeDCHdPGVn-STA-33" style="edgeStyle=orthogonalEdgeStyle;rounded=0;orthogonalLoop=1;jettySize=auto;html=1;exitX=1;exitY=0.5;exitDx=0;exitDy=0;entryX=0;entryY=0.5;entryDx=0;entryDy=0;" edge="1" parent="oQvdDZIeDCHdPGVn-STA-35" source="oQvdDZIeDCHdPGVn-STA-25" target="oQvdDZIeDCHdPGVn-STA-28">
          <mxGeometry relative="1" as="geometry" />
        </mxCell>
        <mxCell id="oQvdDZIeDCHdPGVn-STA-25" value="Treatment detail" style="rounded=0;whiteSpace=wrap;html=1;" vertex="1" parent="oQvdDZIeDCHdPGVn-STA-35">
          <mxGeometry y="122.01219512195121" width="113.51351351351353" height="50.48780487804878" as="geometry" />
        </mxCell>
        <mxCell id="oQvdDZIeDCHdPGVn-STA-26" value="&lt;span style=&quot;font-size:12.0pt;line-height:115%;&lt;br/&gt;font-family:&amp;quot;Aptos&amp;quot;,sans-serif;mso-ascii-theme-font:minor-latin;mso-fareast-font-family:&lt;br/&gt;&amp;quot;Yu Mincho&amp;quot;;mso-fareast-theme-font:minor-fareast;mso-hansi-theme-font:minor-latin;&lt;br/&gt;mso-bidi-font-family:&amp;quot;Times New Roman&amp;quot;;mso-bidi-theme-font:minor-bidi;&lt;br/&gt;mso-ansi-language:EN-US;mso-fareast-language:JA;mso-bidi-language:AR-SA&quot;&gt;date&lt;br/&gt;of treatment&lt;/span&gt;" style="ellipse;whiteSpace=wrap;html=1;" vertex="1" parent="oQvdDZIeDCHdPGVn-STA-35">
          <mxGeometry x="165.54054054054055" width="94.59459459459461" height="58.90243902439024" as="geometry" />
        </mxCell>
        <mxCell id="oQvdDZIeDCHdPGVn-STA-27" value="&lt;span style=&quot;font-size:12.0pt;line-height:115%;&lt;br/&gt;font-family:&amp;quot;Aptos&amp;quot;,sans-serif;mso-ascii-theme-font:minor-latin;mso-fareast-font-family:&lt;br/&gt;&amp;quot;Yu Mincho&amp;quot;;mso-fareast-theme-font:minor-fareast;mso-hansi-theme-font:minor-latin;&lt;br/&gt;mso-bidi-font-family:&amp;quot;Times New Roman&amp;quot;;mso-bidi-theme-font:minor-bidi;&lt;br/&gt;mso-ansi-language:EN-US;mso-fareast-language:JA;mso-bidi-language:AR-SA&quot;&gt;results&lt;/span&gt;" style="ellipse;whiteSpace=wrap;html=1;" vertex="1" parent="oQvdDZIeDCHdPGVn-STA-35">
          <mxGeometry x="165.54054054054055" y="218.78048780487805" width="94.59459459459461" height="58.90243902439024" as="geometry" />
        </mxCell>
        <mxCell id="oQvdDZIeDCHdPGVn-STA-28" value="&lt;span style=&quot;font-size:12.0pt;line-height:115%;&lt;br/&gt;font-family:&amp;quot;Aptos&amp;quot;,sans-serif;mso-ascii-theme-font:minor-latin;mso-fareast-font-family:&lt;br/&gt;&amp;quot;Yu Mincho&amp;quot;;mso-fareast-theme-font:minor-fareast;mso-hansi-theme-font:minor-latin;&lt;br/&gt;mso-bidi-font-family:&amp;quot;Times New Roman&amp;quot;;mso-bidi-theme-font:minor-bidi;&lt;br/&gt;mso-ansi-language:EN-US;mso-fareast-language:JA;mso-bidi-language:AR-SA&quot;&gt;duration&lt;br/&gt;of treatment&amp;nbsp;&lt;/span&gt;" style="ellipse;whiteSpace=wrap;html=1;" vertex="1" parent="oQvdDZIeDCHdPGVn-STA-35">
          <mxGeometry x="165.54054054054055" y="117.80487804878048" width="94.59459459459461" height="58.90243902439024" as="geometry" />
        </mxCell>
        <mxCell id="oQvdDZIeDCHdPGVn-STA-34" style="edgeStyle=orthogonalEdgeStyle;rounded=0;orthogonalLoop=1;jettySize=auto;html=1;exitX=1;exitY=0.5;exitDx=0;exitDy=0;entryX=-0.008;entryY=0.643;entryDx=0;entryDy=0;entryPerimeter=0;" edge="1" parent="oQvdDZIeDCHdPGVn-STA-35" source="oQvdDZIeDCHdPGVn-STA-25" target="oQvdDZIeDCHdPGVn-STA-27">
          <mxGeometry relative="1" as="geometry" />
        </mxCell>
        <mxCell id="oQvdDZIeDCHdPGVn-STA-36" value="Hospitals" style="whiteSpace=wrap;html=1;aspect=fixed;" vertex="1" parent="1">
          <mxGeometry x="392.642972972973" y="449.63756097560974" width="75.73170731707317" height="75.73170731707317" as="geometry" />
        </mxCell>
        <mxCell id="oQvdDZIeDCHdPGVn-STA-57" style="edgeStyle=orthogonalEdgeStyle;rounded=0;orthogonalLoop=1;jettySize=auto;html=1;exitX=1;exitY=0.5;exitDx=0;exitDy=0;entryX=0.5;entryY=0;entryDx=0;entryDy=0;" edge="1" parent="1" source="oQvdDZIeDCHdPGVn-STA-54" target="oQvdDZIeDCHdPGVn-STA-24">
          <mxGeometry relative="1" as="geometry">
            <Array as="points">
              <mxPoint x="298" y="340" />
              <mxPoint x="108" y="340" />
            </Array>
          </mxGeometry>
        </mxCell>
        <mxCell id="oQvdDZIeDCHdPGVn-STA-54" value="Admit" style="rhombus;whiteSpace=wrap;html=1;direction=south;" vertex="1" parent="1">
          <mxGeometry x="260.00216216216216" y="370.00317073170726" width="75.67567567567568" height="67.3170731707317" as="geometry" />
        </mxCell>
        <mxCell id="oQvdDZIeDCHdPGVn-STA-58" style="edgeStyle=orthogonalEdgeStyle;rounded=0;orthogonalLoop=1;jettySize=auto;html=1;exitX=0;exitY=0.5;exitDx=0;exitDy=0;entryX=0.5;entryY=1;entryDx=0;entryDy=0;" edge="1" parent="1" source="oQvdDZIeDCHdPGVn-STA-25" target="oQvdDZIeDCHdPGVn-STA-30">
          <mxGeometry relative="1" as="geometry" />
        </mxCell>
      </root>
    </mxGraphModel>
  </diagram>
</mxfile>
